<svg width="21" height="15" viewBox="0 0 21 15" fill="none" xmlns="http://www.w3.org/2000/svg">
<path d="M1.6314 7.5L5.28222 1.5H12.7852L16.436 7.5L12.7852 13.5H5.28222L1.6314 7.5Z" fill="white" stroke="#107B27" stroke-width="3"/>
<rect y="5.96588" width="17.9775" height="5.11364" fill="#0D8F29"/>
<path d="M3.304 7.48H4.864V7.824H3.732V8.52H4.76V8.86H3.732V9.656H4.876V10H3.304V7.48ZM5.58744 7.48L6.16344 8.428L6.76344 7.48H7.23944L6.41944 8.72L7.27944 10H6.78344L6.15544 9.012L5.53544 10H5.05544L5.89144 8.72L5.09144 7.48H5.58744ZM9.2885 7.48V7.832H8.5285V10H8.1005V7.832H7.3525V7.48H9.2885ZM9.62822 7.48H11.1882V7.824H10.0562V8.52H11.0842V8.86H10.0562V9.656H11.2002V10H9.62822V7.48ZM11.6517 7.48H12.0317L13.0877 8.988C13.1357 9.05733 13.181 9.12667 13.2237 9.196C13.2663 9.26533 13.3023 9.328 13.3317 9.384H13.3397C13.3263 9.18667 13.3197 8.99067 13.3197 8.796C13.3197 8.59867 13.3197 8.4 13.3197 8.2V7.48H13.7317V10H13.3517L12.3237 8.54C12.273 8.468 12.2237 8.39067 12.1757 8.308C12.1277 8.22267 12.0863 8.14667 12.0517 8.08H12.0437C12.057 8.288 12.0637 8.49467 12.0637 8.7C12.0637 8.90267 12.0637 9.10667 12.0637 9.312V10H11.6517V7.48ZM15.1792 7.48C15.3632 7.48 15.5325 7.50533 15.6872 7.556C15.8418 7.60667 15.9752 7.68267 16.0872 7.784C16.1992 7.88267 16.2858 8.008 16.3472 8.16C16.4112 8.30933 16.4432 8.484 16.4432 8.684C16.4432 8.92133 16.4058 9.124 16.3312 9.292C16.2565 9.45733 16.1552 9.59333 16.0272 9.7C15.9018 9.804 15.7538 9.88 15.5832 9.928C15.4152 9.976 15.2378 10 15.0512 10H14.3392V7.48H15.1792ZM14.7672 9.656H15.0152C15.1378 9.656 15.2565 9.64267 15.3712 9.616C15.4885 9.58667 15.5925 9.536 15.6832 9.464C15.7738 9.38933 15.8458 9.28933 15.8992 9.164C15.9552 9.03867 15.9832 8.87867 15.9832 8.684C15.9832 8.40667 15.9032 8.19467 15.7432 8.048C15.5858 7.89867 15.3738 7.824 15.1072 7.824H14.7672V9.656Z" fill="#E7E7E7"/>
</svg>
