<svg width="23" height="15" viewBox="0 0 23 15" fill="none" xmlns="http://www.w3.org/2000/svg">
<path d="M1.6314 7.5L5.28222 1.5H12.7852L16.436 7.5L12.7852 13.5H5.28222L1.6314 7.5Z" fill="white" stroke="#DA5745" stroke-width="3"/>
<rect y="5.96588" width="17.9775" height="5.11364" fill="#DA5745"/>
<path d="M1.304 7.48H2.128C2.264 7.48 2.38667 7.49733 2.496 7.532C2.608 7.56667 2.70267 7.61733 2.78 7.684C2.86 7.748 2.92133 7.828 2.964 7.924C3.00933 8.01733 3.032 8.12533 3.032 8.248C3.032 8.384 3.008 8.50267 2.96 8.604C2.912 8.70267 2.84533 8.78533 2.76 8.852C2.67467 8.916 2.57333 8.964 2.456 8.996C2.34133 9.028 2.216 9.044 2.08 9.044H1.732V10H1.304V7.48ZM1.732 8.704H1.96C2.05067 8.704 2.13333 8.69733 2.208 8.684C2.28533 8.67067 2.352 8.648 2.408 8.616C2.464 8.58133 2.508 8.536 2.54 8.48C2.572 8.42133 2.588 8.34667 2.588 8.256C2.588 8.176 2.57333 8.108 2.544 8.052C2.51467 7.996 2.47467 7.95067 2.424 7.916C2.37333 7.88133 2.316 7.856 2.252 7.84C2.188 7.824 2.12 7.816 2.048 7.816H1.732V8.704ZM3.44463 7.48H4.31263C4.44596 7.48 4.56329 7.5 4.66463 7.54C4.76863 7.57733 4.85529 7.63067 4.92463 7.7C4.99396 7.76667 5.04596 7.84667 5.08063 7.94C5.11529 8.03333 5.13263 8.13467 5.13263 8.244C5.13263 8.34267 5.11663 8.43067 5.08463 8.508C5.05529 8.58533 5.01663 8.65333 4.96863 8.712C4.92063 8.768 4.86596 8.81733 4.80463 8.86C4.74596 8.9 4.68596 8.932 4.62463 8.956L5.27263 10H4.78863L4.23263 9.032H3.86063V10H3.44463V7.48ZM3.86063 8.692H4.13263C4.21263 8.692 4.28596 8.684 4.35263 8.668C4.41929 8.652 4.47796 8.62667 4.52863 8.592C4.57929 8.55733 4.61796 8.51333 4.64463 8.46C4.67396 8.404 4.68863 8.33733 4.68863 8.26C4.68863 8.11067 4.64596 8 4.56063 7.928C4.47529 7.85333 4.35263 7.816 4.19263 7.816H3.86063V8.692ZM5.63603 7.48H7.19603V7.824H6.06403V8.52H7.09203V8.86H6.06403V9.656H7.20803V10H5.63603V7.48ZM7.81147 7.48H8.36347L8.80747 8.84C8.8448 8.95467 8.8768 9.05867 8.90347 9.152C8.9328 9.24267 8.96214 9.34533 8.99147 9.46H9.00347C9.0328 9.364 9.06214 9.26133 9.09147 9.152C9.12347 9.04267 9.15414 8.93867 9.18347 8.84L9.61147 7.48H10.1635L10.3715 10H9.95547C9.93414 9.73333 9.9128 9.46533 9.89147 9.196C9.8728 8.924 9.85814 8.652 9.84747 8.38L9.83147 7.92H9.82347C9.77814 8.08533 9.73014 8.25333 9.67947 8.424C9.63147 8.59467 9.5808 8.75867 9.52747 8.916L9.17147 10H8.80747L8.44747 8.912C8.41014 8.79733 8.3768 8.69333 8.34747 8.6C8.3208 8.50667 8.29547 8.42133 8.27147 8.344C8.25014 8.264 8.23014 8.18933 8.21147 8.12C8.1928 8.05067 8.17547 7.984 8.15947 7.92H8.14747C8.13947 8.14667 8.12747 8.37733 8.11147 8.612C8.09547 8.84667 8.0808 9.072 8.06747 9.288L8.01947 10H7.61147L7.81147 7.48ZM11.3609 7.48V10H10.9329V7.48H11.3609ZM11.9441 7.48H12.3721V8.988C12.3721 9.23867 12.4187 9.42 12.5121 9.532C12.6054 9.644 12.7547 9.7 12.9601 9.7C13.1627 9.7 13.3094 9.64 13.4001 9.52C13.4934 9.39733 13.5401 9.236 13.5401 9.036V7.48H13.9681V9.016C13.9681 9.36533 13.8801 9.624 13.7041 9.792C13.5307 9.95733 13.2827 10.04 12.9601 10.04C12.6427 10.04 12.3934 9.95733 12.2121 9.792C12.0334 9.624 11.9441 9.35867 11.9441 8.996V7.48ZM14.7099 7.48H15.2619L15.7059 8.84C15.7432 8.95467 15.7752 9.05867 15.8019 9.152C15.8312 9.24267 15.8606 9.34533 15.8899 9.46H15.9019C15.9312 9.364 15.9606 9.26133 15.9899 9.152C16.0219 9.04267 16.0526 8.93867 16.0819 8.84L16.5099 7.48H17.0619L17.2699 10H16.8539C16.8326 9.73333 16.8112 9.46533 16.7899 9.196C16.7712 8.924 16.7566 8.652 16.7459 8.38L16.7299 7.92H16.7219C16.6766 8.08533 16.6286 8.25333 16.5779 8.424C16.5299 8.59467 16.4792 8.75867 16.4259 8.916L16.0699 10H15.7059L15.3459 8.912C15.3086 8.79733 15.2752 8.69333 15.2459 8.6C15.2192 8.50667 15.1939 8.42133 15.1699 8.344C15.1486 8.264 15.1286 8.18933 15.1099 8.12C15.0912 8.05067 15.0739 7.984 15.0579 7.92H15.0459C15.0379 8.14667 15.0259 8.37733 15.0099 8.612C14.9939 8.84667 14.9792 9.072 14.9659 9.288L14.9179 10H14.5099L14.7099 7.48Z" fill="#E7E7E7"/>
</svg>
