<svg width="18" height="15" viewBox="0 0 18 15" fill="none" xmlns="http://www.w3.org/2000/svg">
<path d="M1.6314 7.5L5.28222 1.5H12.7852L16.436 7.5L12.7852 13.5H5.28222L1.6314 7.5Z" fill="white" stroke="#6D27C6" stroke-width="3"/>
<rect y="5.96588" width="17.9775" height="5.11364" fill="#6D27C6"/>
<path d="M4.048 7.44C4.32267 7.44 4.56267 7.49067 4.768 7.592L4.668 7.932C4.556 7.87867 4.452 7.84 4.356 7.816C4.26267 7.78933 4.168 7.776 4.072 7.776C3.928 7.776 3.81467 7.80667 3.732 7.868C3.64933 7.92933 3.608 8.01467 3.608 8.124C3.608 8.22 3.64 8.296 3.704 8.352C3.768 8.408 3.872 8.45867 4.016 8.504L4.264 8.584C4.48267 8.65333 4.64267 8.75067 4.744 8.876C4.84533 8.99867 4.896 9.14133 4.896 9.304C4.896 9.41333 4.87467 9.51333 4.832 9.604C4.78933 9.69467 4.728 9.772 4.648 9.836C4.57067 9.9 4.476 9.95067 4.364 9.988C4.252 10.0227 4.128 10.04 3.992 10.04C3.856 10.04 3.72 10.0267 3.584 10C3.45067 9.976 3.32 9.93333 3.192 9.872L3.292 9.536C3.40667 9.592 3.51867 9.63467 3.628 9.664C3.73733 9.69067 3.852 9.704 3.972 9.704C4.116 9.704 4.23333 9.67333 4.324 9.612C4.41467 9.55067 4.46 9.46 4.46 9.34C4.46 9.25467 4.428 9.17867 4.364 9.112C4.30267 9.04533 4.18133 8.98267 4 8.924L3.764 8.848C3.58 8.78667 3.43467 8.70533 3.328 8.604C3.224 8.5 3.172 8.356 3.172 8.172C3.172 7.95067 3.24667 7.77333 3.396 7.64C3.54533 7.50667 3.76267 7.44 4.048 7.44ZM5.79059 7.48V10H5.36259V7.48H5.79059ZM6.39775 7.48H6.82575V9.648H7.88175V10H6.39775V7.48ZM8.14731 7.48L8.63531 8.86C8.65131 8.90533 8.66865 8.956 8.68731 9.012C8.70865 9.068 8.72998 9.12667 8.75131 9.188C8.77265 9.24667 8.79265 9.30667 8.81131 9.368C8.83265 9.42667 8.85131 9.48133 8.86731 9.532H8.87531C8.88865 9.48133 8.90465 9.428 8.92331 9.372C8.94198 9.31333 8.96065 9.25467 8.97931 9.196C8.99798 9.13733 9.01665 9.08133 9.03531 9.028C9.05398 8.97467 9.07131 8.928 9.08731 8.888L9.59931 7.48H10.0433L9.08331 10H8.64731L7.69531 7.48H8.14731ZM10.3431 7.48H11.9031V7.824H10.7711V8.52H11.7991V8.86H10.7711V9.656H11.9151V10H10.3431V7.48ZM12.3665 7.48H13.2345C13.3678 7.48 13.4852 7.5 13.5865 7.54C13.6905 7.57733 13.7772 7.63067 13.8465 7.7C13.9158 7.76667 13.9678 7.84667 14.0025 7.94C14.0372 8.03333 14.0545 8.13467 14.0545 8.244C14.0545 8.34267 14.0385 8.43067 14.0065 8.508C13.9772 8.58533 13.9385 8.65333 13.8905 8.712C13.8425 8.768 13.7878 8.81733 13.7265 8.86C13.6678 8.9 13.6078 8.932 13.5465 8.956L14.1945 10H13.7105L13.1545 9.032H12.7825V10H12.3665V7.48ZM12.7825 8.692H13.0545C13.1345 8.692 13.2078 8.684 13.2745 8.668C13.3412 8.652 13.3998 8.62667 13.4505 8.592C13.5012 8.55733 13.5398 8.51333 13.5665 8.46C13.5958 8.404 13.6105 8.33733 13.6105 8.26C13.6105 8.11067 13.5678 8 13.4825 7.928C13.3972 7.85333 13.2745 7.816 13.1145 7.816H12.7825V8.692Z" fill="#E7E7E7"/>
</svg>
