<svg width="18" height="15" viewBox="0 0 18 15" fill="none" xmlns="http://www.w3.org/2000/svg">
<path d="M1.6314 7.5L5.28222 1.5H12.7852L16.436 7.5L12.7852 13.5H5.28222L1.6314 7.5Z" fill="white" stroke="#3461A6" stroke-width="3"/>
<rect y="5.96588" width="17.9775" height="5.11364" fill="#3461A6"/>
<path d="M4.385 6.85C4.70833 6.85 4.96 6.92 5.14 7.06C5.32 7.19667 5.41 7.395 5.41 7.655C5.41 7.75167 5.39333 7.83833 5.36 7.915C5.33 7.98833 5.28833 8.05333 5.235 8.11C5.185 8.16333 5.125 8.20833 5.055 8.245C4.985 8.28167 4.91167 8.31 4.835 8.33C4.92833 8.34667 5.015 8.37667 5.095 8.42C5.17833 8.46 5.25 8.51333 5.31 8.58C5.37 8.64333 5.41667 8.72 5.45 8.81C5.48667 8.9 5.505 9.00167 5.505 9.115C5.505 9.245 5.47667 9.365 5.42 9.475C5.36333 9.58167 5.28333 9.675 5.18 9.755C5.08 9.83167 4.96 9.89167 4.82 9.935C4.68 9.97833 4.525 10 4.355 10H3.38V6.85H4.385ZM3.915 8.145H4.275C4.355 8.145 4.43 8.13833 4.5 8.125C4.57333 8.11167 4.635 8.08833 4.685 8.055C4.73833 8.01833 4.78 7.97167 4.81 7.915C4.84333 7.855 4.86 7.78167 4.86 7.695C4.86 7.54833 4.81 7.44167 4.71 7.375C4.61 7.305 4.475 7.27 4.305 7.27H3.915V8.145ZM3.915 9.58H4.29C4.38 9.58 4.465 9.57167 4.545 9.555C4.625 9.535 4.695 9.505 4.755 9.465C4.815 9.425 4.86167 9.37333 4.895 9.31C4.93167 9.24333 4.95 9.16167 4.95 9.065C4.95 8.97167 4.93 8.89333 4.89 8.83C4.85 8.76333 4.79667 8.71 4.73 8.67C4.66333 8.63 4.58667 8.60167 4.5 8.585C4.41333 8.56833 4.32333 8.56 4.23 8.56H3.915V9.58ZM6.68102 8.765H7.63602L7.45102 8.255C7.39435 8.115 7.34435 7.985 7.30102 7.865C7.26102 7.74167 7.21768 7.60167 7.17102 7.445H7.16102C7.11102 7.59167 7.06435 7.72833 7.02102 7.855C6.97768 7.97833 6.92768 8.11333 6.87102 8.26L6.68102 8.765ZM6.92102 6.85H7.43102L8.65602 10H8.09602L7.78102 9.175H6.54602L6.23602 10H5.68102L6.92102 6.85ZM9.97895 6.8C10.3223 6.8 10.6223 6.86333 10.8789 6.99L10.7539 7.415C10.6139 7.34833 10.4839 7.3 10.3639 7.27C10.2473 7.23667 10.1289 7.22 10.0089 7.22C9.82895 7.22 9.68728 7.25833 9.58395 7.335C9.48061 7.41167 9.42895 7.51833 9.42895 7.655C9.42895 7.775 9.46895 7.87 9.54895 7.94C9.62895 8.01 9.75895 8.07333 9.93895 8.13L10.2489 8.23C10.5223 8.31667 10.7223 8.43833 10.8489 8.595C10.9756 8.74833 11.0389 8.92667 11.0389 9.13C11.0389 9.26667 11.0123 9.39167 10.9589 9.505C10.9056 9.61833 10.8289 9.715 10.7289 9.795C10.6323 9.875 10.5139 9.93833 10.3739 9.985C10.2339 10.0283 10.0789 10.05 9.90895 10.05C9.73895 10.05 9.56895 10.0333 9.39895 10C9.23228 9.97 9.06895 9.91667 8.90895 9.84L9.03395 9.42C9.17728 9.49 9.31728 9.54333 9.45395 9.58C9.59061 9.61333 9.73395 9.63 9.88395 9.63C10.0639 9.63 10.2106 9.59167 10.3239 9.515C10.4373 9.43833 10.4939 9.325 10.4939 9.175C10.4939 9.06833 10.4539 8.97333 10.3739 8.89C10.2973 8.80667 10.1456 8.72833 9.91895 8.655L9.62395 8.56C9.39395 8.48333 9.21228 8.38167 9.07895 8.255C8.94895 8.125 8.88395 7.945 8.88395 7.715C8.88395 7.43833 8.97728 7.21667 9.16395 7.05C9.35061 6.88333 9.62228 6.8 9.97895 6.8ZM12.1572 6.85V10H11.6222V6.85H12.1572ZM14.3511 9.62C14.5145 9.62 14.6495 9.60667 14.7561 9.58C14.8661 9.55 14.9695 9.51167 15.0661 9.465L15.1811 9.88C15.0745 9.93 14.9511 9.97 14.8111 10C14.6711 10.0333 14.4995 10.05 14.2961 10.05C14.0795 10.05 13.8761 10.015 13.6861 9.945C13.4995 9.87167 13.3361 9.76667 13.1961 9.63C13.0595 9.49 12.9511 9.32 12.8711 9.12C12.7911 8.91667 12.7511 8.685 12.7511 8.425C12.7511 8.17167 12.7895 7.945 12.8661 7.745C12.9428 7.54167 13.0495 7.37 13.1861 7.23C13.3261 7.09 13.4911 6.98333 13.6811 6.91C13.8745 6.83667 14.0861 6.8 14.3161 6.8C14.5261 6.8 14.6978 6.81833 14.8311 6.855C14.9678 6.88833 15.0878 6.93333 15.1911 6.99L15.0661 7.395C14.9528 7.345 14.8445 7.305 14.7411 7.275C14.6411 7.245 14.5211 7.23 14.3811 7.23C14.2378 7.23 14.1011 7.25167 13.9711 7.295C13.8445 7.33833 13.7328 7.40833 13.6361 7.505C13.5428 7.60167 13.4678 7.72667 13.4111 7.88C13.3545 8.03 13.3261 8.21167 13.3261 8.425C13.3261 8.63833 13.3528 8.82167 13.4061 8.975C13.4628 9.125 13.5361 9.24833 13.6261 9.345C13.7195 9.43833 13.8278 9.50833 13.9511 9.555C14.0778 9.59833 14.2111 9.62 14.3511 9.62Z" fill="#E7E7E7"/>
</svg>
