<svg width="18" height="15" viewBox="0 0 18 15" fill="none" xmlns="http://www.w3.org/2000/svg">
<path d="M1.6314 7.5L5.28222 1.5H12.7852L16.436 7.5L12.7852 13.5H5.28222L1.6314 7.5Z" fill="white" stroke="#92A713" stroke-width="3"/>
<rect y="5.96588" width="17.9775" height="5.11364" fill="#92A713"/>
<path d="M5.44 7.44C5.73333 7.44 5.97867 7.48933 6.176 7.588L6.08 7.904C5.984 7.85867 5.88667 7.82533 5.788 7.804C5.692 7.78267 5.592 7.772 5.488 7.772C5.37333 7.772 5.264 7.78933 5.16 7.824C5.05867 7.85867 4.968 7.91467 4.888 7.992C4.81067 8.06933 4.748 8.16933 4.7 8.292C4.65467 8.41467 4.632 8.56533 4.632 8.744C4.632 9.056 4.70267 9.29467 4.844 9.46C4.98533 9.62267 5.18533 9.704 5.444 9.704C5.53467 9.704 5.612 9.7 5.676 9.692C5.74267 9.68133 5.80533 9.66533 5.864 9.644V8.98H5.408V8.652H6.268V9.888C6.16133 9.93067 6.04133 9.96667 5.908 9.996C5.77467 10.0253 5.61867 10.04 5.44 10.04C5.264 10.04 5.09867 10.012 4.944 9.956C4.78933 9.9 4.65467 9.81733 4.54 9.708C4.42533 9.59867 4.33467 9.464 4.268 9.304C4.204 9.14133 4.172 8.95467 4.172 8.744C4.172 8.53333 4.204 8.34667 4.268 8.184C4.332 8.02133 4.42 7.88533 4.532 7.776C4.64667 7.664 4.78133 7.58 4.936 7.524C5.09067 7.468 5.25867 7.44 5.44 7.44ZM7.88028 7.44C8.05361 7.44 8.21361 7.468 8.36028 7.524C8.50695 7.58 8.63361 7.66267 8.74028 7.772C8.84695 7.88133 8.92961 8.01733 8.98828 8.18C9.04961 8.34267 9.08028 8.52933 9.08028 8.74C9.08028 8.948 9.04961 9.13333 8.98828 9.296C8.92695 9.456 8.84161 9.592 8.73228 9.704C8.62295 9.81333 8.49361 9.89733 8.34428 9.956C8.19761 10.012 8.03761 10.04 7.86428 10.04C7.69095 10.04 7.53095 10.012 7.38428 9.956C7.23761 9.9 7.11095 9.81733 7.00428 9.708C6.89761 9.59867 6.81361 9.464 6.75228 9.304C6.69361 9.14133 6.66428 8.95333 6.66428 8.74C6.66428 8.532 6.69495 8.348 6.75628 8.188C6.81761 8.02533 6.90295 7.88933 7.01228 7.78C7.12161 7.668 7.24961 7.584 7.39628 7.528C7.54561 7.46933 7.70695 7.44 7.88028 7.44ZM7.12428 8.74C7.12428 8.90267 7.14428 9.04533 7.18428 9.168C7.22428 9.288 7.27761 9.388 7.34428 9.468C7.41361 9.548 7.49361 9.608 7.58428 9.648C7.67761 9.68533 7.77628 9.704 7.88028 9.704C7.98428 9.704 8.08161 9.68533 8.17228 9.648C8.26295 9.608 8.34028 9.548 8.40428 9.468C8.47095 9.388 8.52295 9.288 8.56028 9.168C8.60028 9.04533 8.62028 8.90267 8.62028 8.74C8.62028 8.572 8.60028 8.428 8.56028 8.308C8.52028 8.18533 8.46561 8.08533 8.39628 8.008C8.32961 7.928 8.24961 7.86933 8.15628 7.832C8.06561 7.79467 7.96828 7.776 7.86428 7.776C7.76028 7.776 7.66295 7.796 7.57228 7.836C7.48161 7.87333 7.40295 7.932 7.33628 8.012C7.27228 8.092 7.22028 8.19333 7.18028 8.316C7.14295 8.436 7.12428 8.57733 7.12428 8.74ZM9.56181 7.48H9.98981V9.648H11.0458V10H9.56181V7.48ZM12.2417 7.48C12.4257 7.48 12.595 7.50533 12.7497 7.556C12.9043 7.60667 13.0377 7.68267 13.1497 7.784C13.2617 7.88267 13.3483 8.008 13.4097 8.16C13.4737 8.30933 13.5057 8.484 13.5057 8.684C13.5057 8.92133 13.4683 9.124 13.3937 9.292C13.319 9.45733 13.2177 9.59333 13.0897 9.7C12.9643 9.804 12.8163 9.88 12.6457 9.928C12.4777 9.976 12.3003 10 12.1137 10H11.4017V7.48H12.2417ZM11.8297 9.656H12.0777C12.2003 9.656 12.319 9.64267 12.4337 9.616C12.551 9.58667 12.655 9.536 12.7457 9.464C12.8363 9.38933 12.9083 9.28933 12.9617 9.164C13.0177 9.03867 13.0457 8.87867 13.0457 8.684C13.0457 8.40667 12.9657 8.19467 12.8057 8.048C12.6483 7.89867 12.4363 7.824 12.1697 7.824H11.8297V9.656Z" fill="#E7E7E7"/>
</svg>
